<!DOCTYPE svg PUBLIC "-//W3C//DTD SVG 20010904//EN" "http://www.w3.org/TR/2001/REC-SVG-20010904/DTD/svg10.dtd">
<svg version="1.0" xmlns="http://www.w3.org/2000/svg" width="900px" height="900px" viewBox="0 0 9000 9000" preserveAspectRatio="xMidYMid meet">
<g id="layer101" fill="#010100" stroke="none">
<path d="M4370 8852 c-81 -40 -100 -119 -75 -316 8 -71 13 -138 9 -150 -16 -55 -132 -334 -185 -444 -76 -160 -114 -210 -203 -270 -99 -67 -242 -112 -496 -157 -113 -20 -268 -47 -345 -61 -262 -47 -466 -104 -1035 -294 -372 -123 -379 -125 -558 -140 -152 -13 -281 -38 -365 -70 -165 -62 -300 -291 -283 -479 9 -106 32 -139 225 -331 97 -97 237 -243 311 -324 233 -256 545 -548 775 -726 211 -163 326 -231 576 -343 l57 -25 32 -98 c44 -132 98 -254 149 -338 23 -38 39 -71 37 -73 -12 -12 -128 34 -306 122 -194 95 -230 107 -230 81 0 -21 53 -117 103 -188 25 -35 54 -82 66 -106 l21 -42 -20 0 c-31 0 -133 36 -231 82 l-86 40 -51 91 c-59 108 -160 313 -186 376 -23 59 -39 42 -46 -51 l-5 -70 -80 82 c-124 127 -272 240 -315 240 -17 0 -11 -26 25 -106 19 -42 33 -79 31 -81 -4 -4 -184 104 -263 159 -42 28 -42 28 -53 8 -9 -16 -7 -34 5 -77 9 -30 14 -57 12 -59 -3 -4 -217 86 -304 127 -76 37 -83 7 -18 -76 25 -32 43 -60 40 -63 -2 -2 -53 14 -113 36 -123 46 -186 60 -196 43 -4 -6 7 -30 25 -52 l33 -42 -155 7 c-229 10 -236 -6 -35 -90 212 -88 346 -162 346 -190 0 -7 -41 -25 -92 -41 -145 -45 -134 -58 112 -135 115 -35 144 -49 148 -70 4 -22 -26 -28 -160 -28 -77 0 -118 -4 -118 -11 0 -23 280 -128 425 -159 33 -7 64 -16 68 -20 11 -9 -59 -28 -152 -40 -80 -11 -86 -13 -77 -28 15 -24 112 -35 270 -29 89 3 186 2 216 -2 l55 -7 -92 -29 c-51 -17 -93 -35 -93 -41 0 -19 101 -26 188 -14 44 6 147 33 228 61 147 49 283 79 353 79 l36 -1 -30 -21 c-56 -40 -121 -118 -150 -178 -16 -33 -26 -62 -23 -65 5 -5 118 20 193 42 11 3 196 9 410 13 378 7 395 8 555 38 91 17 188 34 216 38 l50 6 23 -58 c63 -165 181 -268 353 -309 35 -8 84 -15 110 -15 25 0 48 -5 50 -11 2 -6 0 -50 -5 -97 -5 -48 -9 -190 -10 -317 -2 -266 -5 -246 132 -800 44 -176 78 -321 77 -322 -1 -1 -26 40 -55 92 -59 103 -169 256 -234 323 -70 72 -158 123 -527 306 -353 173 -545 280 -650 361 -97 74 -144 134 -213 271 -85 166 -143 238 -226 281 -56 29 -72 33 -144 33 -185 0 -326 -78 -481 -264 l-66 -80 -159 -52 c-191 -62 -388 -155 -453 -213 -54 -48 -104 -141 -114 -213 -4 -35 -11 -49 -26 -54 -33 -10 -137 -119 -158 -165 -39 -87 -13 -162 68 -196 60 -25 110 -5 292 117 63 42 133 86 156 98 184 94 780 135 926 63 97 -47 203 -144 623 -567 242 -243 568 -564 725 -712 357 -337 389 -372 495 -533 144 -220 239 -298 397 -322 151 -23 332 33 418 130 107 122 353 742 459 1158 94 373 125 606 124 960 0 247 -5 322 -38 640 l-5 50 71 45 c77 48 145 123 185 203 19 37 28 46 38 38 7 -6 36 -57 64 -113 29 -59 73 -127 101 -160 48 -53 51 -59 51 -111 0 -29 9 -79 19 -109 10 -31 24 -81 31 -111 11 -55 10 -58 -18 -99 -43 -63 -62 -104 -62 -133 0 -14 -14 -49 -30 -79 -45 -80 -87 -202 -100 -295 -22 -146 4 -491 36 -491 8 0 14 7 14 15 0 8 8 34 18 57 l17 43 6 -70 c4 -38 7 -107 8 -152 0 -45 6 -94 12 -110 10 -26 12 -27 23 -9 21 36 64 81 71 74 4 -3 11 -86 16 -184 5 -97 11 -179 13 -182 12 -11 24 12 30 55 13 95 39 218 47 227 5 6 9 -8 9 -35 0 -75 41 -199 65 -199 7 0 23 27 35 61 17 44 25 57 31 46 13 -23 57 -210 70 -298 6 -43 15 -79 19 -79 25 0 56 140 66 298 5 82 11 115 27 141 11 19 31 62 43 95 l22 60 26 -52 c14 -29 29 -73 33 -97 7 -55 24 -54 36 1 12 52 14 264 4 387 -5 64 -5 97 2 97 14 0 57 -76 77 -134 29 -83 39 -44 38 142 -1 136 -5 180 -21 235 -11 37 -16 67 -11 67 6 0 23 -8 39 -17 37 -22 44 -13 29 34 -43 130 -131 250 -228 308 -41 24 -54 40 -72 82 -18 43 -34 62 -90 102 l-67 49 -7 104 c-8 101 -27 224 -42 263 -20 52 331 -291 448 -436 39 -49 75 -89 80 -89 16 0 1 108 -28 208 -32 111 -127 319 -186 408 -121 181 -331 379 -498 468 l-61 33 61 37 c173 107 328 334 420 614 43 132 102 359 120 462 l11 66 57 29 c123 65 316 202 557 399 61 49 116 94 124 100 8 6 -2 -14 -21 -44 -49 -76 -101 -182 -131 -267 -48 -132 -52 -199 -40 -659 14 -537 2 -766 -48 -912 -10 -30 -56 -111 -100 -180 -120 -184 -153 -259 -154 -347 0 -53 5 -79 20 -105 29 -49 101 -94 171 -108 33 -7 106 -21 163 -33 57 -11 122 -29 145 -41 22 -11 106 -85 186 -162 80 -78 174 -163 210 -188 168 -118 303 -152 454 -111 l62 16 85 -42 c70 -35 98 -43 145 -44 72 -2 120 22 148 74 26 48 16 95 -34 152 -37 41 -78 71 -262 189 -38 25 -99 80 -145 130 -43 48 -140 153 -215 233 -153 164 -205 234 -218 291 -12 53 5 217 35 338 13 54 67 230 119 390 154 474 191 620 311 1206 36 179 73 350 82 380 8 30 53 127 98 215 100 193 127 267 127 355 0 164 -123 352 -279 426 -99 46 -184 37 -478 -51 -61 -18 -178 -43 -260 -55 -746 -107 -1241 -226 -1525 -369 -199 -100 -468 -275 -748 -488 -68 -51 -125 -93 -128 -93 -3 0 -25 14 -50 31 -35 24 -42 33 -35 47 5 9 14 44 20 76 9 48 8 70 -5 120 -16 59 -16 63 6 120 17 45 42 79 101 141 44 45 79 85 79 89 0 5 -24 6 -54 4 l-54 -3 13 26 c27 51 87 94 160 113 157 42 420 156 412 179 -7 23 -73 36 -189 36 -118 1 -218 15 -218 32 0 12 96 86 143 110 77 40 185 60 377 69 319 16 431 54 662 226 48 37 88 70 88 75 0 4 -30 9 -67 11 l-68 3 171 87 c182 93 225 121 209 136 -5 5 -31 16 -57 26 -85 31 -71 55 62 106 153 58 177 80 78 73 -29 -3 -71 -1 -93 4 -39 9 -37 10 133 67 94 32 172 62 172 67 0 15 -65 21 -189 17 -66 -1 -121 -1 -121 2 0 3 23 28 50 55 57 56 64 79 23 69 -74 -17 -145 -40 -217 -71 -43 -18 -80 -32 -82 -30 -2 2 17 34 42 71 26 38 42 72 37 77 -17 17 -179 -39 -320 -110 -46 -23 -83 -38 -83 -33 0 4 16 34 35 66 40 67 40 66 20 66 -29 0 -118 -50 -283 -158 -18 -12 -22 -12 -18 -1 10 32 15 125 7 137 -6 10 -20 2 -57 -35 -27 -26 -109 -90 -182 -142 -160 -113 -261 -216 -291 -297 -12 -30 -21 -58 -21 -63 0 -4 -27 -34 -59 -67 -48 -48 -62 -70 -76 -118 -12 -39 -30 -73 -55 -100 l-38 -40 -6 65 c-21 200 -50 331 -69 309 -2 -3 -18 -48 -36 -100 -18 -52 -48 -127 -66 -166 -37 -76 -134 -229 -182 -284 -16 -19 -49 -63 -72 -97 -24 -34 -50 -64 -59 -68 -11 -4 -32 12 -66 50 -79 88 -107 58 -71 -75 24 -89 19 -94 -89 -86 -120 8 -136 0 -154 -79 -8 -37 -14 -132 -15 -250 -2 -190 -2 -190 -29 -229 -47 -65 -52 -103 -28 -205 12 -50 20 -100 18 -113 -2 -17 -25 -35 -88 -69 -47 -26 -122 -75 -168 -109 l-82 -61 -83 59 c-363 262 -670 413 -1211 597 l-239 82 108 7 c235 15 292 39 725 303 356 217 483 288 620 348 178 78 216 84 452 78 229 -6 289 1 361 47 60 38 89 94 89 169 -1 58 -6 79 -66 246 -51 141 -49 182 13 337 77 194 96 314 71 449 -14 77 -70 183 -138 263 -46 53 -62 81 -71 120 -19 84 -65 172 -100 190 -39 20 -58 20 -101 -2z"/>
</g>
<g id="layer102" fill="#ebb436" stroke="none">
<path d="M6323 7819 c-48 -36 -53 -44 -53 -79 l0 -40 48 0 c43 0 53 5 100 48 42 39 52 54 52 80 0 32 -1 32 -47 32 -40 0 -56 -7 -100 -41z"/>
<path d="M6014 7793 c-25 -3 -40 -16 -73 -62 -42 -61 -43 -71 -4 -71 16 0 27 -8 34 -27 8 -23 12 -24 23 -12 24 24 96 165 89 172 -6 7 -12 7 -69 0z"/>
<path d="M6499 7764 c-89 -61 -99 -72 -99 -121 l0 -43 43 0 c37 0 51 8 115 61 68 56 92 89 92 125 0 10 -13 14 -49 14 -40 0 -59 -7 -102 -36z"/>
<path d="M6179 7783 c-30 -3 -46 -15 -89 -63 -47 -54 -51 -64 -48 -102 l3 -42 50 2 c47 2 54 6 103 59 52 56 60 78 46 131 -4 12 -11 21 -18 20 -6 -1 -27 -3 -47 -5z"/>
<path d="M5730 7713 c-50 -43 -67 -65 -74 -95 -5 -21 -7 -41 -4 -43 2 -3 26 -8 52 -11 47 -7 48 -7 107 52 56 55 59 61 59 106 l0 48 -37 -1 c-31 0 -50 -10 -103 -56z"/>
<path d="M6282 7663 c-44 -6 -112 -89 -112 -138 0 -41 9 -48 54 -40 46 9 146 98 146 130 0 54 -7 58 -88 48z"/>
<path d="M6571 7623 c-13 -3 -45 -18 -72 -35 -48 -29 -49 -31 -49 -79 l0 -49 41 0 c33 0 50 8 90 42 45 38 49 45 49 85 0 46 -2 47 -59 36z"/>
<path d="M5816 7569 c-46 -40 -47 -43 -44 -93 l3 -51 46 -3 c45 -3 48 -1 88 46 35 43 41 56 41 96 l0 46 -44 0 c-36 0 -50 -6 -90 -41z"/>
<path d="M5635 7523 c-32 -5 -135 -97 -135 -121 0 -20 53 -92 68 -92 7 0 41 22 76 50 65 51 76 72 76 141 0 31 -7 33 -85 22z"/>
<path d="M5983 7482 c-28 -25 -42 -47 -45 -67 -3 -30 -3 -30 52 -33 51 -3 60 0 103 34 39 31 47 42 47 70 l0 34 -57 0 c-52 -1 -62 -4 -100 -38z"/>
<path d="M6248 7464 c-49 -30 -88 -59 -88 -63 0 -5 36 -11 80 -15 78 -6 81 -6 130 26 46 30 50 36 48 68 -3 33 -5 35 -43 38 -34 2 -53 -6 -127 -54z"/>
<path d="M5764 7383 c-11 -2 -54 -37 -94 -78 l-74 -75 83 0 83 0 54 46 c46 39 54 52 54 80 0 34 -1 34 -42 33 -24 -1 -52 -4 -64 -6z"/>
<path d="M5411 7323 c-34 -71 -119 -197 -194 -290 -37 -46 -96 -119 -132 -163 -76 -94 -87 -137 -33 -126 17 3 122 55 232 116 273 148 252 141 409 138 153 -3 177 5 228 75 35 48 62 107 53 116 -13 14 -289 4 -339 -12 -27 -9 -52 -13 -56 -9 -3 4 -13 27 -22 52 -20 52 -86 144 -108 148 -9 2 -23 -15 -38 -45z"/>
<path d="M6211 7304 c-34 -31 -61 -60 -61 -65 0 -5 33 -9 73 -9 l72 0 65 56 c36 31 67 61 68 65 2 5 -32 9 -77 9 l-80 0 -60 -56z"/>
<path d="M5902 7294 c-28 -25 -50 -50 -46 -55 3 -5 44 -9 92 -9 l87 0 58 46 c31 25 57 50 57 55 0 5 -44 9 -97 9 l-98 0 -53 -46z"/>
<path d="M5048 7177 c-93 -185 -153 -277 -244 -379 -105 -116 -205 -294 -221 -392 -5 -34 19 -106 36 -106 6 0 27 33 47 73 90 177 138 250 228 346 101 108 179 217 208 294 23 59 45 276 32 300 -7 12 -27 -20 -86 -136z"/>
<path d="M6077 7191 c-32 -5 -43 -14 -77 -66 -22 -33 -40 -63 -40 -67 0 -12 109 -9 133 3 53 27 116 107 102 129 -7 11 -56 11 -118 1z"/>
<path d="M5130 6676 c-74 -14 -114 -32 -165 -78 -52 -45 -85 -108 -92 -172 -7 -71 4 -86 67 -86 44 0 50 3 69 33 58 93 151 152 434 273 37 15 67 32 67 36 0 12 -308 7 -380 -6z"/>
<path d="M4504 6579 c-44 -12 -75 -50 -81 -99 -7 -50 3 -60 63 -60 39 0 41 1 54 43 6 23 23 61 37 85 l25 42 -34 -1 c-18 0 -47 -5 -64 -10z"/>
<path d="M4763 6423 c-22 -38 -50 -87 -62 -110 -20 -41 -20 -42 -2 -65 l19 -23 27 25 c44 40 75 116 75 183 0 31 -3 57 -8 57 -4 0 -26 -30 -49 -67z"/>
<path d="M4416 6340 c-42 -51 -46 -131 -9 -172 50 -56 122 28 111 127 -3 25 -11 52 -18 60 -20 24 -56 18 -84 -15z"/>
<path d="M4860 6264 c-111 -63 -136 -115 -101 -207 l11 -28 45 32 c25 18 73 61 106 96 52 54 60 67 57 95 -3 30 -6 33 -38 36 -23 1 -50 -6 -80 -24z"/>
<path d="M4555 6203 c-8 -27 -22 -59 -29 -72 -12 -22 -11 -29 11 -63 14 -21 31 -38 37 -38 14 0 59 46 75 77 31 60 -7 143 -64 143 -7 0 -21 -21 -30 -47z"/>
<path d="M4360 6068 c-64 -105 42 -231 114 -135 46 63 13 159 -57 165 -32 3 -39 -1 -57 -30z"/>
<path d="M4855 5999 c-30 -28 -79 -88 -110 -132 l-55 -80 55 -23 c31 -12 66 -29 79 -38 24 -15 26 -14 56 21 80 91 115 232 70 281 -12 12 -25 22 -31 22 -6 0 -35 -23 -64 -51z"/>
<path d="M4580 5955 c-49 -47 -90 -88 -90 -91 -1 -8 78 -64 90 -64 5 0 36 26 68 58 71 69 92 119 68 157 -9 14 -23 25 -32 25 -9 0 -56 -38 -104 -85z"/>
<path d="M4378 5829 c-26 -14 -22 -40 10 -79 l28 -33 42 23 c23 13 42 27 42 31 0 13 -71 69 -88 69 -9 0 -25 -5 -34 -11z"/>
<path d="M4255 5717 c-30 -14 -61 -44 -54 -52 3 -2 25 -13 49 -24 l44 -20 43 32 c42 30 43 32 26 49 -25 24 -72 31 -108 15z"/>
<path d="M4909 5700 l-24 -20 50 -44 c28 -25 55 -45 62 -46 24 0 153 53 147 61 -3 5 -29 23 -57 39 -65 37 -141 41 -178 10z"/>
<path d="M4095 5612 c-45 -29 -71 -61 -54 -66 8 -2 43 -14 78 -26 l63 -22 34 33 34 33 -28 28 c-37 37 -87 45 -127 20z"/>
<path d="M5095 5582 c-56 -35 -57 -43 -14 -89 39 -42 40 -42 72 -28 17 8 58 22 90 30 31 9 57 20 57 24 0 14 -124 81 -150 81 -14 0 -38 -8 -55 -18z"/>
<path d="M3954 5476 c-34 -27 -90 -103 -82 -112 3 -2 53 -2 112 2 87 6 107 10 111 24 3 10 14 25 25 35 31 28 24 42 -27 59 -65 22 -103 20 -139 -8z"/>
<path d="M5217 5450 c-26 -16 -50 -36 -53 -44 -3 -7 5 -28 17 -47 l23 -34 90 29 c50 16 97 30 105 33 31 9 -78 93 -121 93 -8 0 -35 -13 -61 -30z"/>
<path d="M5314 5319 c-77 -40 -78 -41 -57 -77 17 -30 22 -32 73 -32 30 0 84 -5 120 -10 35 -5 66 -7 68 -5 11 10 -24 81 -57 116 -46 48 -69 49 -147 8z"/>
<path d="M3882 5310 c-43 -10 -70 -35 -93 -85 -18 -39 -25 -85 -13 -85 15 0 210 64 218 71 6 5 17 29 27 53 l16 44 -30 6 c-37 8 -83 6 -125 -4z"/>
<path d="M2704 5210 c10 -77 67 -297 121 -468 l48 -149 76 -7 c114 -10 207 -36 298 -82 l82 -42 -44 87 c-39 77 -100 228 -110 271 -15 64 -35 175 -40 222 l-6 56 -86 37 c-46 20 -87 34 -89 32 -11 -11 19 -181 47 -273 27 -86 90 -228 130 -293 18 -27 1 -41 -18 -16 -25 34 -89 167 -116 242 -39 108 -58 188 -65 278 l-7 80 -80 31 c-44 18 -95 35 -114 39 l-34 7 7 -52z"/>
<path d="M6430 5219 c-30 -10 -74 -26 -96 -34 l-42 -16 -7 -67 c-10 -104 -33 -208 -71 -322 -40 -120 -131 -300 -151 -300 -17 0 -18 -3 29 80 75 133 141 331 160 487 7 51 9 95 6 99 -4 3 -43 -9 -86 -27 l-80 -32 -11 -77 c-16 -108 -53 -240 -95 -339 -40 -95 -142 -271 -156 -271 -18 0 -10 24 21 70 48 72 114 207 147 305 31 89 70 280 60 290 -3 3 -37 -9 -75 -26 l-71 -31 -17 -85 c-27 -141 -88 -299 -141 -370 -16 -21 -20 -34 -13 -39 6 -3 22 -30 35 -58 21 -46 24 -65 24 -191 0 -157 9 -202 49 -247 23 -26 32 -29 59 -24 48 11 150 81 214 149 152 159 252 374 342 732 36 142 66 298 66 341 0 30 -22 30 -100 3z"/>
<path d="M5317 5111 c24 -56 29 -61 57 -61 17 0 56 -7 86 -15 30 -8 56 -15 58 -15 2 0 2 23 0 51 -4 74 -30 91 -143 97 l-85 4 27 -61z"/>
<path d="M3900 5121 c-127 -40 -160 -74 -160 -163 l0 -59 47 36 c25 19 68 43 95 53 45 16 49 20 63 69 9 29 18 59 21 68 7 18 4 18 -66 -4z"/>
<path d="M3165 5019 c6 -57 15 -106 30 -161 3 -10 7 -26 9 -35 15 -64 58 -173 103 -262 29 -58 53 -109 53 -115 0 -5 29 -40 65 -77 l66 -68 10 27 c23 65 33 84 64 128 l32 45 -28 52 c-28 52 -87 242 -109 348 -11 56 -12 57 -62 78 -28 12 -53 19 -55 17 -8 -8 39 -219 73 -334 28 -92 62 -177 102 -254 2 -5 -3 -8 -11 -8 -20 0 -68 102 -108 230 -18 58 -34 110 -35 115 -1 6 -10 46 -18 90 -41 204 -29 179 -99 210 -34 15 -68 30 -76 33 -11 4 -12 -7 -6 -59z"/>
<path d="M5363 4993 c-21 -8 -15 -58 10 -80 50 -46 117 -36 117 17 0 50 -72 86 -127 63z"/>
<path d="M5813 4970 c-37 -17 -43 -24 -58 -77 -38 -134 -84 -240 -117 -269 -29 -27 -32 -9 -4 35 37 57 115 267 104 276 -2 1 -25 -1 -52 -4 l-48 -6 -18 -71 c-31 -120 -81 -217 -102 -196 -7 7 -3 20 11 40 51 73 94 220 71 247 -12 14 -18 12 -53 -22 -57 -56 -97 -117 -123 -192 -38 -107 -38 -106 59 -106 88 0 126 -11 194 -57 l42 -28 25 42 c43 74 74 150 105 259 46 157 44 164 -36 129z"/>
<path d="M3650 4932 c-19 -9 -36 -17 -38 -18 -2 -1 2 -22 8 -46 29 -110 44 -157 67 -201 25 -50 25 -69 -1 -48 -21 18 -56 104 -81 205 l-23 90 -47 13 c-26 8 -49 12 -51 10 -6 -6 41 -200 65 -271 11 -32 30 -78 42 -101 l22 -44 69 49 c38 27 85 54 103 60 l34 11 -35 63 c-34 63 -84 193 -84 220 0 23 -12 25 -50 8z"/>
<path d="M3836 4910 c-89 -27 -86 -125 4 -105 41 9 62 37 58 76 -3 37 -16 43 -62 29z"/>
<path d="M1197 4694 c-4 -4 -7 -26 -7 -48 0 -38 4 -45 53 -83 49 -38 56 -41 100 -36 47 6 47 6 47 44 0 44 -19 68 -78 98 -44 22 -104 36 -115 25z"/>
<path d="M1450 4656 c0 -61 12 -78 79 -108 53 -24 74 -28 109 -23 41 6 42 7 42 46 0 39 -1 40 -66 69 -73 33 -164 42 -164 16z"/>
<path d="M965 4643 c-33 -9 -62 -17 -64 -19 -2 -2 -1 -18 3 -36 5 -27 21 -43 81 -86 l74 -53 60 7 61 7 0 48 c0 48 0 49 -67 98 -38 28 -72 50 -78 50 -5 -1 -37 -8 -70 -16z"/>
<path d="M1737 4634 c-4 -4 -7 -29 -7 -55 0 -47 2 -49 60 -94 l60 -46 62 19 c34 11 63 23 65 28 2 5 -27 39 -64 76 -61 59 -73 67 -118 73 -28 3 -54 3 -58 -1z"/>
<path d="M3837 4584 c-73 -26 -155 -76 -186 -115 -44 -54 -78 -126 -86 -180 -12 -78 24 -162 53 -126 6 7 13 46 17 87 14 149 71 208 227 234 36 7 37 7 31 44 -11 69 -13 71 -56 56z"/>
<path d="M5454 4555 c-28 -14 -59 -34 -69 -45 -17 -19 -17 -21 10 -61 26 -36 28 -44 18 -77 -40 -141 -39 -133 -20 -147 26 -19 69 -2 107 41 43 49 46 74 17 138 -14 30 -23 57 -19 60 3 3 18 6 34 6 62 0 93 -78 64 -159 -9 -25 -16 -60 -16 -77 0 -40 19 -94 33 -94 6 0 34 24 63 53 58 61 66 89 52 189 -11 83 -30 114 -100 159 -72 46 -102 48 -174 14z"/>
<path d="M1440 4496 c0 -38 5 -48 36 -76 34 -29 41 -31 83 -25 25 4 47 8 47 8 1 1 5 16 9 34 6 31 4 34 -49 68 -36 23 -67 35 -91 35 -35 0 -35 0 -35 -44z"/>
<path d="M2995 4506 c-26 -19 -15 -72 37 -176 69 -137 236 -297 300 -288 31 4 63 70 78 158 11 65 10 72 -10 104 -52 85 -177 172 -285 201 -73 19 -96 19 -120 1z"/>
<path d="M1683 4493 c-20 -4 -23 -10 -23 -56 0 -50 2 -54 46 -89 42 -34 53 -38 105 -38 l59 0 0 39 c0 37 -4 42 -73 95 -40 31 -78 55 -83 55 -5 -1 -19 -4 -31 -6z"/>
<path d="M1232 4453 c3 -34 8 -41 52 -64 38 -21 58 -26 90 -21 22 2 43 6 45 8 2 2 1 18 -3 37 -5 27 -15 37 -51 55 -27 13 -65 22 -91 22 l-45 0 3 -37z"/>
<path d="M1948 4433 c-15 -4 -18 -16 -18 -68 l0 -64 72 -55 c41 -31 77 -51 82 -46 4 4 14 36 21 71 l13 63 -45 53 c-46 54 -67 61 -125 46z"/>
<path d="M5193 4301 c-73 -76 -133 -141 -133 -145 0 -3 33 -6 74 -6 74 0 75 0 108 39 50 58 108 162 108 192 0 31 -9 59 -19 58 -3 0 -66 -63 -138 -138z"/>
<path d="M1088 4413 c-13 -3 -18 -15 -18 -42 0 -31 8 -45 54 -90 43 -43 59 -52 82 -49 18 2 30 10 34 23 3 12 13 20 25 20 14 0 21 8 23 26 2 21 -7 35 -51 73 -54 46 -88 55 -149 39z"/>
<path d="M3874 4408 c-13 -21 -5 -103 14 -148 41 -94 92 -121 281 -150 134 -20 153 -26 231 -79 58 -40 95 -40 150 0 52 38 49 43 -69 94 -62 28 -119 43 -225 60 -77 13 -152 27 -166 33 -28 11 -67 52 -129 134 -36 48 -58 68 -76 68 -2 0 -7 -5 -11 -12z"/>
<path d="M3736 4358 c-20 -18 -38 -45 -42 -60 -5 -24 -3 -28 16 -28 45 0 103 95 70 115 -5 3 -25 -9 -44 -27z"/>
<path d="M1588 4363 c-26 -4 -28 -8 -28 -48 0 -42 2 -45 64 -89 43 -31 75 -46 95 -46 30 0 31 1 31 45 0 42 -3 46 -62 95 -35 27 -65 49 -68 49 -3 -1 -17 -4 -32 -6z"/>
<path d="M1423 4351 c-78 -7 -78 -6 -87 -37 -10 -33 59 -74 123 -74 27 0 52 3 54 8 3 4 7 29 8 57 5 57 9 55 -98 46z"/>
<path d="M2151 4211 c-11 -47 -42 -129 -68 -181 -26 -52 -49 -99 -51 -104 -7 -14 95 1 129 19 101 53 89 50 138 31 26 -10 62 -24 81 -31 23 -8 116 -15 265 -19 l230 -7 -35 31 c-54 47 -109 70 -171 70 -86 1 -190 19 -239 42 -27 13 -87 64 -151 129 l-106 107 -22 -87z"/>
<path d="M2588 4284 c6 -10 40 -56 76 -101 95 -119 243 -224 338 -239 47 -8 174 14 189 32 10 13 3 25 -42 70 -51 51 -63 57 -185 98 -72 25 -182 68 -245 96 -63 28 -120 54 -128 57 -10 5 -11 2 -3 -13z"/>
<path d="M1823 4273 c-8 -3 -13 -23 -13 -51 l0 -47 105 -42 c91 -36 110 -40 140 -32 19 6 35 15 35 22 -1 7 -43 45 -95 85 -75 57 -100 72 -127 71 -18 0 -39 -3 -45 -6z"/>
<path d="M3740 4233 c-71 -59 -118 -173 -72 -173 18 0 126 60 150 84 11 10 10 21 -5 61 -10 27 -23 50 -29 52 -6 2 -26 -9 -44 -24z"/>
<path d="M1263 4223 c-21 -8 -16 -87 6 -115 11 -13 47 -39 81 -57 l60 -32 32 26 c18 15 42 31 55 36 23 8 23 10 7 34 -9 14 -43 45 -76 70 -52 39 -66 45 -106 44 -26 0 -53 -3 -59 -6z"/>
<path d="M4921 4210 c-88 -24 -99 -30 -238 -143 -126 -102 -196 -141 -256 -139 -23 0 -82 15 -131 31 -50 17 -100 31 -113 31 -32 0 -85 -28 -80 -43 7 -22 111 -67 190 -82 43 -8 116 -15 161 -15 79 0 86 2 142 38 32 21 101 73 153 116 51 43 137 110 190 148 53 38 98 72 100 74 10 10 -50 1 -118 -16z"/>
<path d="M1533 4213 c-18 -2 -33 -10 -32 -16 0 -7 35 -39 77 -73 68 -53 84 -61 135 -67 l57 -7 0 38 0 39 -96 44 c-110 50 -99 47 -141 42z"/>
<path d="M3475 4128 c-29 -124 -31 -199 -6 -251 24 -50 63 -77 89 -61 10 7 26 44 37 90 12 43 24 85 28 91 5 8 -5 26 -28 48 -19 20 -49 63 -65 95 -17 33 -32 60 -34 60 -3 0 -12 -33 -21 -72z"/>
<path d="M5320 4170 c-23 -23 -26 -62 -5 -80 35 -29 97 31 77 75 -14 30 -45 32 -72 5z"/>
<path d="M5454 4155 c-54 -57 -60 -138 -11 -143 51 -6 118 94 103 154 -10 37 -51 32 -92 -11z"/>
<path d="M5675 4116 c-49 -22 -105 -76 -105 -99 0 -7 5 -30 11 -52 7 -22 19 -85 29 -140 l17 -100 28 55 c21 41 29 75 34 138 7 82 8 85 44 114 39 31 49 72 25 96 -17 17 -26 15 -83 -12z"/>
<path d="M1806 4112 c-3 -3 -6 -23 -6 -45 0 -35 6 -46 47 -84 74 -69 115 -67 153 7 25 49 25 48 -7 61 -112 43 -182 66 -187 61z"/>
<path d="M4945 4090 c-22 -10 -50 -27 -63 -37 -23 -19 -21 -19 135 -19 193 1 205 -4 319 -129 42 -47 81 -85 86 -85 38 0 5 88 -69 181 -55 71 -94 88 -223 100 -131 12 -140 11 -185 -11z"/>
<path d="M3823 4072 c-67 -24 -114 -57 -144 -100 -22 -32 -24 -46 -24 -141 0 -99 2 -110 30 -159 64 -117 203 -208 333 -219 73 -6 95 4 72 32 -7 8 -65 50 -129 94 -64 43 -128 92 -143 108 -118 125 -34 279 141 259 59 -7 60 -6 75 22 10 19 32 36 61 48 25 11 45 22 45 26 0 14 -106 39 -185 44 -62 4 -92 1 -132 -14z"/>
<path d="M1512 4039 c-37 -11 -36 -14 18 -76 33 -38 40 -41 115 -52 79 -11 171 -6 181 10 3 5 -10 27 -28 48 -30 36 -41 42 -123 60 -98 23 -114 24 -163 10z"/>
<path d="M4754 3944 c-38 -31 -71 -58 -73 -60 -2 -2 4 -15 13 -28 35 -55 191 -72 312 -35 84 25 114 43 114 69 0 30 -31 40 -129 40 -90 0 -90 0 -125 35 -20 19 -37 35 -39 35 -3 0 -35 -25 -73 -56z"/>
<path d="M5480 3961 c-5 -11 -10 -46 -10 -78 0 -36 -6 -67 -15 -80 -12 -17 -13 -28 -5 -49 6 -15 10 -68 9 -119 -2 -99 2 -115 31 -115 28 0 57 64 71 151 19 126 -11 309 -51 309 -11 0 -24 -9 -30 -19z"/>
<path d="M5160 3906 c0 -95 -55 -136 -183 -136 -97 0 -218 -53 -225 -98 -3 -20 42 -122 54 -122 3 0 24 16 47 35 35 30 77 46 77 29 0 -3 -14 -37 -30 -76 -36 -84 -34 -103 12 -94 49 10 73 30 108 93 44 79 95 125 169 153 69 26 107 63 117 116 5 29 2 40 -17 60 -26 28 -113 94 -123 94 -3 0 -6 -24 -6 -54z"/>
<path d="M3195 3914 c-158 -33 -164 -33 -431 -34 -277 0 -362 -8 -424 -40 -49 -26 -88 -70 -96 -110 -6 -30 -5 -33 12 -26 82 32 315 55 679 65 284 8 292 9 370 37 73 26 80 32 83 58 5 37 -5 73 -20 79 -7 2 -85 -11 -173 -29z"/>
<path d="M5847 3905 c-27 -7 -58 -21 -68 -32 -19 -19 -19 -20 48 -73 207 -166 593 -531 720 -682 92 -107 102 -92 42 64 -64 165 -204 353 -416 559 -161 155 -229 190 -326 164z"/>
<path d="M3873 3865 c-38 -16 -58 -53 -50 -87 4 -15 33 -42 75 -71 102 -70 202 -162 275 -252 78 -97 147 -162 192 -181 43 -18 126 -18 168 0 67 27 103 97 77 147 -14 24 -41 24 -91 -1 -52 -27 -103 -28 -137 -3 -15 11 -61 64 -103 119 -84 108 -237 261 -314 312 -55 37 -50 36 -92 17z"/>
<path d="M4023 3863 c-9 -24 51 -75 85 -71 37 4 38 23 4 58 -34 33 -79 40 -89 13z"/>
<path d="M4188 3799 c-28 -16 -23 -66 10 -99 31 -31 74 -45 170 -55 78 -9 80 2 16 74 -70 78 -147 109 -196 80z"/>
<path d="M5725 3775 c-3 -14 -7 -36 -10 -50 -4 -17 0 -27 15 -35 11 -6 20 -15 20 -21 0 -6 22 -36 49 -67 27 -31 70 -90 96 -130 34 -54 50 -71 58 -63 6 6 13 53 15 104 4 83 2 95 -18 120 -29 36 -191 167 -207 167 -7 0 -15 -11 -18 -25z"/>
<path d="M4390 3785 c0 -2 33 -37 73 -77 46 -46 96 -111 136 -176 118 -194 215 -273 317 -257 79 12 129 79 88 120 -12 12 -33 15 -85 13 -66 -2 -70 -1 -103 32 -23 21 -50 68 -77 132 -40 96 -102 188 -139 208 -18 10 -210 14 -210 5z"/>
<path d="M5337 3747 c-20 -31 -37 -93 -37 -137 0 -44 -32 -97 -66 -110 -14 -6 -63 -10 -108 -10 -98 0 -121 -13 -96 -57 28 -49 65 -67 143 -71 65 -3 77 0 124 27 74 44 107 113 111 236 3 94 -9 137 -39 143 -9 2 -23 -8 -32 -21z"/>
<path d="M4304 3599 c-17 -18 -17 -23 -4 -47 8 -15 39 -39 69 -54 124 -63 227 -9 136 70 -60 53 -166 69 -201 31z"/>
<path d="M6026 3522 c-10 -17 -46 -226 -46 -271 0 -26 9 -74 21 -107 11 -32 26 -83 34 -112 l14 -54 -40 -76 c-22 -41 -39 -82 -37 -90 3 -12 34 -15 196 -16 180 -1 192 0 192 17 0 40 -35 89 -101 142 -38 31 -69 59 -69 63 -14 259 -27 317 -99 441 -40 67 -54 81 -65 63z"/>
<path d="M5943 2735 c-23 -16 -43 -70 -43 -115 0 -31 94 -130 109 -115 11 13 81 201 81 219 0 27 -112 35 -147 11z"/>
<path d="M6238 2678 c-3 -40 -4 -77 -2 -83 7 -16 87 -64 97 -58 6 3 7 43 4 90 -5 94 -21 123 -67 123 -27 0 -27 -2 -32 -72z"/>
<path d="M6371 2658 l1 -93 73 -68 c45 -42 79 -66 86 -61 16 10 6 152 -15 191 -17 35 -114 123 -133 123 -10 0 -13 -24 -12 -92z"/>
<path d="M6135 2670 c-45 -89 -44 -125 4 -157 18 -12 37 -20 42 -17 12 7 11 231 -1 239 -5 3 -26 -26 -45 -65z"/>
<path d="M5862 2481 c-17 -29 -22 -55 -22 -106 0 -51 5 -77 22 -106 12 -22 25 -39 30 -39 5 0 29 19 53 41 45 41 45 42 45 109 0 68 0 69 -42 104 -23 20 -47 36 -53 36 -6 0 -21 -17 -33 -39z"/>
<path d="M6217 2488 c-53 -71 -57 -99 -31 -189 31 -105 44 -95 60 49 16 131 17 172 5 172 -6 0 -21 -15 -34 -32z"/>
<path d="M6332 2489 c-5 -13 -18 -50 -27 -81 -18 -56 -18 -58 1 -94 36 -67 43 -60 69 63 l18 85 -26 26 -26 26 -9 -25z"/>
<path d="M6041 2443 c-5 -21 -15 -58 -21 -82 -11 -40 -9 -50 15 -108 15 -35 33 -62 39 -60 6 2 25 41 44 87 l33 83 -39 55 c-22 31 -44 58 -50 60 -6 2 -15 -14 -21 -35z"/>
<path d="M6406 2326 l-17 -105 42 -38 c50 -45 66 -56 72 -46 9 15 37 214 32 223 -8 13 -92 70 -103 70 -5 0 -17 -47 -26 -104z"/>
<path d="M5933 2199 c-38 -27 -41 -33 -48 -88 -6 -54 -4 -65 22 -110 15 -28 32 -51 36 -51 5 0 23 11 41 25 28 21 34 33 45 100 12 70 11 77 -8 103 -36 51 -42 53 -88 21z"/>
<path d="M6248 2192 l-47 -37 -1 -83 c0 -83 18 -142 45 -142 5 0 25 28 44 62 33 60 33 63 27 142 -4 45 -10 84 -14 88 -4 3 -28 -10 -54 -30z"/>
<path d="M6122 2175 c-18 -12 -35 -25 -38 -27 -2 -3 -11 -42 -19 -87 l-14 -82 27 -55 c14 -30 31 -53 36 -51 5 2 20 30 32 63 18 46 23 80 23 156 1 53 -2 99 -6 101 -5 3 -23 -5 -41 -18z"/>
<path d="M6346 2193 c-3 -3 -6 -45 -6 -92 0 -78 3 -91 31 -140 18 -31 34 -50 40 -44 41 41 39 208 -4 244 -32 28 -54 39 -61 32z"/>
<path d="M6265 1909 c-54 -30 -62 -46 -64 -121 -1 -42 30 -149 50 -172 5 -5 23 2 42 17 26 20 41 45 65 112 l31 87 -30 54 c-17 30 -34 54 -37 53 -4 -1 -29 -14 -57 -30z"/>
</g>
<g id="layer103" fill="#ffc8a0" stroke="none">
<path d="M4379 8773 c-16 -19 -18 -139 -5 -303 l8 -105 -72 -175 c-39 -96 -101 -236 -137 -309 -55 -115 -75 -145 -131 -201 -130 -130 -279 -183 -732 -260 -447 -76 -587 -113 -1217 -321 -399 -131 -422 -137 -653 -159 -155 -15 -276 -44 -341 -83 -148 -88 -234 -329 -167 -466 15 -30 85 -109 208 -232 102 -102 286 -290 410 -419 422 -437 758 -711 1048 -852 79 -38 145 -68 146 -66 2 1 -14 66 -36 142 -46 168 -67 300 -52 324 6 9 23 18 37 20 42 5 215 -59 507 -188 151 -67 302 -130 334 -141 l59 -20 45 23 46 24 18 89 c29 152 80 270 155 363 42 51 61 30 -157 176 -198 133 -340 214 -513 293 -262 120 -727 282 -1155 402 -79 22 -147 43 -153 46 -14 9 -11 41 6 55 12 10 31 9 97 -4 154 -31 302 -46 450 -46 254 0 332 24 603 190 438 267 540 326 675 395 80 40 186 88 235 106 l90 34 260 0 c243 0 263 1 305 21 99 46 111 100 55 255 -90 251 -92 293 -22 464 62 150 80 224 80 325 1 134 -28 205 -135 334 -42 50 -63 84 -74 125 -20 71 -43 132 -56 149 -15 17 -53 15 -69 -5z"/>
<path d="M7960 6749 c-41 -11 -127 -35 -190 -55 -76 -23 -185 -45 -318 -64 -685 -100 -1155 -211 -1428 -339 -188 -88 -566 -336 -825 -541 l-48 -38 57 -43 c215 -162 345 -364 384 -600 9 -56 15 -69 35 -78 53 -24 77 -17 428 132 422 179 525 203 525 125 0 -10 4 -18 8 -18 15 0 184 109 282 183 130 96 377 297 540 437 74 64 141 119 147 124 16 9 53 -11 53 -28 0 -8 -30 -51 -66 -96 -149 -184 -270 -387 -321 -535 -37 -111 -43 -215 -31 -564 12 -372 6 -708 -17 -839 -23 -140 -49 -204 -135 -337 -113 -174 -143 -238 -148 -310 -4 -54 -1 -64 22 -92 34 -40 82 -57 228 -83 195 -34 207 -40 391 -217 291 -279 424 -342 617 -292 l91 24 37 -23 c109 -67 206 -90 242 -57 54 49 11 98 -210 237 -97 62 -122 85 -322 300 -223 238 -284 312 -320 383 -19 35 -20 51 -15 155 9 162 33 266 142 601 162 495 209 675 325 1243 87 429 90 441 174 596 89 164 126 255 133 326 14 137 -101 320 -242 385 -51 24 -128 23 -225 -2z"/>
<path d="M4519 5696 c-218 -89 -420 -311 -517 -569 -53 -142 -73 -250 -74 -412 -1 -191 15 -255 86 -349 29 -39 62 -79 73 -89 13 -11 69 -25 174 -43 151 -25 249 -57 348 -115 l33 -20 54 43 c94 75 116 88 183 109 36 11 103 23 149 26 l83 6 102 109 c56 60 106 119 112 131 5 12 9 101 9 197 0 156 -3 185 -27 272 -68 255 -241 500 -450 636 -143 94 -233 112 -338 68z m218 -166 c35 -15 44 -23 35 -32 -9 -9 -27 -7 -73 7 -63 19 -60 20 -196 -12 -43 -10 -26 24 20 41 23 8 49 17 57 20 27 10 109 -3 157 -24z m13 -114 c115 -13 194 -44 184 -71 -8 -19 -20 -19 -31 -2 -4 8 -21 22 -36 32 -25 16 -36 17 -110 7 -82 -11 -160 -10 -273 3 -58 7 -62 6 -97 -25 -20 -17 -41 -29 -47 -25 -39 24 42 65 159 80 124 16 127 16 251 1z m-58 -195 c18 -10 48 -22 66 -26 31 -6 52 -29 52 -57 0 -8 -20 -47 -45 -88 l-45 -75 0 -157 0 -156 46 -41 c51 -45 121 -71 191 -71 47 0 150 31 189 57 37 24 44 5 9 -23 -42 -34 -116 -54 -201 -54 -95 0 -170 27 -217 79 -32 35 -36 47 -42 116 -4 43 -5 120 -3 171 5 88 8 97 47 163 45 73 49 104 16 109 -11 2 -44 15 -73 29 l-52 26 -44 -21 c-24 -12 -53 -22 -65 -22 -28 0 -61 -17 -61 -31 0 -6 9 -24 21 -41 27 -37 17 -49 -15 -19 -49 46 -31 111 32 111 15 0 45 9 67 19 52 25 86 25 127 2z m-317 -287 c59 -24 107 -56 97 -66 -5 -5 -34 5 -68 22 -73 38 -129 47 -189 30 -25 -7 -48 -10 -52 -6 -10 10 4 18 54 32 51 14 106 10 158 -12z m685 5 c64 -29 114 -69 102 -81 -7 -7 -22 -2 -44 16 -94 71 -163 74 -284 11 -88 -45 -121 -51 -74 -13 28 23 113 67 150 79 45 13 104 9 150 -12z m-647 -141 c26 -11 47 -26 47 -33 0 -24 -118 -75 -169 -74 -52 1 -143 29 -149 47 -4 13 63 57 117 78 42 16 87 10 154 -18z m681 -2 c38 -22 45 -30 36 -41 -18 -21 -110 -49 -162 -48 -53 1 -162 46 -156 65 3 7 29 23 59 35 75 32 157 28 223 -11z m-1030 -104 c-5 -35 -3 -41 35 -75 84 -76 219 -86 332 -26 62 33 92 32 49 -1 -51 -40 -95 -54 -180 -58 -102 -5 -177 19 -228 71 -32 33 -45 87 -28 115 15 25 26 11 20 -26z"/>
<path d="M2130 3429 c-110 -22 -230 -108 -339 -246 l-67 -85 -115 -33 c-205 -60 -425 -159 -493 -223 -44 -42 -86 -123 -86 -167 0 -54 -11 -74 -54 -99 -92 -54 -169 -163 -146 -206 13 -25 52 -35 87 -22 16 5 97 55 182 111 174 114 233 138 435 172 169 29 521 37 624 15 146 -31 294 -152 683 -561 145 -152 417 -422 604 -598 508 -481 554 -528 667 -698 162 -243 239 -299 414 -299 136 0 255 50 307 129 45 68 104 193 187 401 178 444 272 781 332 1181 20 135 23 192 23 469 0 239 -5 356 -19 485 -10 94 -19 171 -20 172 -1 1 -18 -2 -37 -7 -19 -5 -73 -13 -120 -18 -71 -8 -95 -15 -130 -39 -138 -95 -214 -104 -323 -38 l-55 33 -67 -36 c-126 -66 -259 -55 -384 32 l-65 46 -6 -73 c-4 -39 -7 -160 -8 -267 -1 -242 7 -285 184 -989 69 -271 125 -502 125 -512 0 -25 -33 -42 -52 -26 -9 7 -37 60 -63 119 -151 342 -355 640 -505 737 -30 19 -233 124 -450 232 -435 217 -603 318 -710 428 -53 54 -79 94 -140 211 -129 251 -211 306 -400 269z"/>
</g>


</svg>